<?xml version="1.0" encoding="utf-8"?>
<!-- Generator: Adobe Illustrator 16.0.0, SVG Export Plug-In . SVG Version: 6.00 Build 0)  -->
<!DOCTYPE svg PUBLIC "-//W3C//DTD SVG 1.1//EN" "http://www.w3.org/Graphics/SVG/1.1/DTD/svg11.dtd">
<svg version="1.1" id="Layer_1" xmlns="http://www.w3.org/2000/svg" xmlns:xlink="http://www.w3.org/1999/xlink" x="0px" y="0px"
	 width="762px" height="400px" viewBox="0 0 762 400" enable-background="new 0 0 762 400" xml:space="preserve">
<g>
	<path d="M694.373,118.375c-6.064,10.618-13.087,20.552-21.117,29.775c-7.111,8.169-14.91,15.601-23.651,22.016
		c-3.263,2.395-3.415,2.315-4.362-1.74c-0.65-2.776-1.166-5.602-2.76-8.382c-0.398,0.616-0.707,0.987-0.901,1.41
		c-3.042,6.619-7.835,11.775-13.572,16.105c-10.794,8.149-23.262,12.102-36.387,14.396c-1.81,0.316-2.286-0.438-2.256-2.093
		c0.064-3.632,0.021-7.266,0.021-11.086c-0.67,0.277-0.88,0.316-1.029,0.433c-0.864,0.678-1.705,1.386-2.57,2.063
		c-7.904,6.193-16.072,12.073-26.176,13.923c-6.684,1.224-13.548,0.705-20.315,0.133c-4.217-0.356-8.295-0.644-12.259,1.429
		c-2.73,1.427-5.69,2.417-8.553,3.593c-4.087,1.679-4.092,1.675-4.091-2.854c0.022-58.072,0.047-116.145,0.071-174.216
		c0-0.8-0.057-1.604,0.01-2.398c0.152-1.819-0.551-2.159-2.311-1.828c-6.359,1.197-10.36,5.344-13.425,10.584
		c-4.677,7.997-6.04,16.852-6.046,25.93c-0.026,47.577-0.01,95.154,0.122,142.731c0.009,2.968-1.039,4.312-3.655,5.192
		c-8.847,2.977-17.862,2.743-26.939,1.644c-1.458-0.177-1.762-0.941-1.08-2.302c1.472-2.942,2.963-5.887,4.211-8.928
		c6.367-15.521,11.165-31.353,10.181-48.46c-0.737-12.788-7.924-21.589-20.334-24.369c-8.569-1.918-17.147-0.829-25.613,0.342
		c-23.146,3.204-43.942,12.045-62.027,27.005c-0.621,0.513-1.124,1.479-2.449,0.946c0-1.133,0-2.322,0-3.511
		c0.009-36.382,0-72.765,0.069-109.147c0.004-2.373-0.399-3.201-2.998-2.553c-6.965,1.737-10.942,6.679-13.939,12.634
		c-3.619,7.191-4.803,14.987-4.865,22.932c-0.107,13.692-0.026,27.387-0.019,41.081c0.016,32.484,0.032,64.968,0.064,97.452
		c0.002,1.734,0.012,3.211-1.934,4.225c-5.845,3.045-11.565,6.329-17.364,9.465c-1.662,0.898-3.383,1.728-5.312,1.932
		c-3.677,0.388-4.715-0.513-4.722-4.208c-0.014-7.897,0.001-15.794,0.006-23.689c0.018-31.485,0.011-62.969,0.098-94.454
		c0.007-2.419-0.475-3.19-3.022-2.566c-5.9,1.444-9.697,5.363-12.624,10.305c-4.67,7.886-6.055,16.651-6.11,25.613
		c-0.12,19.49-0.017,38.981-0.007,58.472c0,1.474,0.233,2.933-1.462,3.896c-4.517,2.566-8.973,5.256-13.755,7.3
		c-4.938,2.108-6.906,0.758-6.903-4.511c0.016-30.785,0.006-61.57,0.104-92.355c0.008-2.606-0.612-3.352-3.203-2.675
		c-5.855,1.527-9.63,5.475-12.527,10.44c-4.621,7.916-5.95,16.691-6.011,25.645c-0.129,19.29-0.019,38.581-0.015,57.872
		c0,3.625-0.026,3.645-3.454,2.236c-3.97-1.631-7.951-3.242-11.871-4.989c-2.066-0.92-4.126-1.326-6.386-1.155
		c-10.065,0.764-20.114,0.809-30.213,0.145c-13.877-0.912-27.479-3.275-41.055-6.137c-23.818-5.021-43.945-16.449-60.754-33.967
		c-10.923-11.383-20.212-23.957-28.225-38.007c-0.139,0.482-0.209,0.587-0.185,0.659c15.205,44.068,42.965,76.6,86.874,94.122
		c15.651,6.246,32.133,9.431,48.707,12.026c13.551,2.121,27.187,2.769,40.867,1.238c5.405-0.604,5.405-0.608,6.334,4.783
		c0.81,4.695,3.581,6.854,8.355,6.692c2.353-0.078,4.156-1.176,5.927-2.544c8.856-6.839,17.732-13.653,26.616-20.457
		c0.686-0.526,1.427-1.455,2.308-1.07c0.978,0.426,0.516,1.599,0.519,2.436c0.034,8.995,0.051,17.99,0.008,26.985
		c-0.01,2.113,0.2,4.187,0.589,6.249c0.813,4.314,4.081,6.31,8.396,5.245c1.3-0.321,2.403-0.95,3.516-1.613
		c11.84-7.058,23.696-14.091,35.503-21.207c1.779-1.071,3.282-1.354,5.271-0.427c2.885,1.344,5.92,2.402,8.958,3.378
		c15.295,4.913,31.018,7.155,47.046,7.877c11.227,0.506,22.329,0.086,33.322-2.265c19.993-4.271,38.268-12.517,55.063-24.097
		c1.642-1.132,2.783-1.46,4.32,0.187c2.852,3.054,6.553,4.849,10.393,6.366c12.832,5.072,26.285,4.694,39.621,3.909
		c13.238-0.778,26.251-3.501,39.212-6.375c36.935-8.189,66.923-27,89.097-57.854c9.672-13.456,17.031-28.089,22.15-43.957
		C694.618,117.379,694.577,118.017,694.373,118.375z M449.259,180.602c-3.695,23.048-17.613,37.708-40.494,42.261
		c-13.097,2.605-26.338,2.572-39.432-0.826c-3.17-0.823-4.477-2.255-4.364-5.766c0.286-8.877,0.095-17.771,0.095-26.658
		c0.012,0,0.024,0,0.035,0c0-9.286,0-18.573,0-27.859c0-1.288-0.123-2.519,1.272-3.398c14.498-9.149,29.87-15.697,47.396-15.171
		c8.502,0.254,16.509,2.607,23.509,7.744C447.394,158.355,451.199,168.496,449.259,180.602z"/>
	<path d="M621.664,108.562c14.084-7.814,20.74-19.722,20.563-35.664c-0.039-3.522-0.121-3.59-3.298-1.938
		c-24.334,12.654-48.661,25.321-72.991,37.982c-1.236,0.643-2.419,1.328-3.38,2.386c-6.425,7.081-12.06,14.705-15.881,23.529
		c-1.648,3.806-3.12,7.696-2.962,12.454c1.328-0.504,2.334-0.819,3.285-1.255C572.329,134.437,597.287,122.086,621.664,108.562z"/>
	<g>
		<path d="M190.892,161.167c10.816-0.005,19.035-8.358,19.017-19.326c-0.018-10.643-8.392-18.941-19.092-18.919
			c-10.973,0.023-19.193,8.243-19.161,19.158C171.688,153.013,179.91,161.172,190.892,161.167z"/>
		<path d="M147.003,150.683c10.719-0.001,19.018-8.299,19.041-19.041c0.023-10.785-8.214-19.148-18.89-19.177
			c-11.055-0.03-19.32,8.105-19.335,19.033C127.804,142.482,136.004,150.683,147.003,150.683z"/>
	</g>
	<g>
		<path d="M285.927,94.985c9.874-0.036,17.431-7.759,17.39-17.77c-0.041-9.908-7.771-17.538-17.696-17.466
			c-9.984,0.072-17.563,7.676-17.564,17.623C268.056,87.423,275.767,95.023,285.927,94.985z"/>
	</g>
	<g>
		<path d="M166.672,271.129v15.869h-1.264c-0.573-4.278-1.971-7.547-4.195-9.805c-2.224-2.257-5.054-3.387-8.49-3.387
			c-1.18,0-2.258,0.202-3.234,0.606c-0.978,0.404-1.837,0.936-2.578,1.593c-0.742,0.656-1.314,1.407-1.718,2.249
			s-0.606,1.718-0.606,2.628c0,0.842,0.168,1.643,0.505,2.4c0.336,0.758,1.381,1.945,3.133,3.563c2.931,1.854,5.542,3.387,7.833,4.6
			c2.156,1.18,5.07,2.965,8.743,5.357c1.583,1.213,2.796,2.652,3.639,4.32c0.842,1.668,1.264,3.412,1.264,5.231
			c0,1.718-0.354,3.353-1.062,4.902s-1.693,2.905-2.957,4.068c-1.263,1.162-2.788,2.089-4.574,2.779
			c-1.786,0.69-3.74,1.036-5.862,1.036c-1.348,0-2.595-0.102-3.74-0.304c-0.202-0.033-0.733-0.177-1.592-0.43
			c-0.859-0.252-1.777-0.513-2.754-0.783c-0.978-0.27-1.887-0.521-2.729-0.758c-0.842-0.235-1.331-0.354-1.465-0.354
			c-0.574,0-1.02,0.169-1.339,0.505c-0.321,0.337-0.565,1.045-0.733,2.123h-1.264v-15.769h1.264c0.606,3.234,1.397,5.711,2.375,7.43
			c0.471,0.809,1.103,1.559,1.895,2.249c0.791,0.69,1.685,1.297,2.679,1.819c0.993,0.522,2.063,0.927,3.209,1.213
			c1.145,0.286,2.308,0.43,3.487,0.43c1.415,0,2.687-0.202,3.815-0.606c1.128-0.404,2.089-0.952,2.881-1.643
			c0.792-0.69,1.398-1.491,1.819-2.4c0.421-0.91,0.632-1.87,0.632-2.881c0-1.146-0.312-2.291-0.935-3.437
			c-0.624-1.146-1.676-2.274-3.159-3.387c-1.449-0.876-3.167-1.903-5.155-3.083c-3.808-2.189-7.194-4.296-10.158-6.317
			c-1.651-1.313-2.906-2.754-3.765-4.32c-0.859-1.567-1.289-3.311-1.289-5.231c0-1.617,0.336-3.158,1.011-4.624
			c0.674-1.466,1.609-2.754,2.805-3.866c1.195-1.112,2.619-1.987,4.271-2.628c1.65-0.64,3.437-0.96,5.357-0.96
			c2.426,0,5.003,0.59,7.732,1.769c0.64,0.27,1.179,0.488,1.617,0.657c0.438,0.169,0.792,0.235,1.062,0.202
			c0.606,0,1.094-0.169,1.466-0.506c0.37-0.336,0.657-1.044,0.859-2.122H166.672z"/>
		<path d="M225.883,302.715h-17.79l-3.133,7.228c-0.742,1.786-1.112,3.117-1.112,3.992c0,0.371,0.058,0.708,0.177,1.011
			c0.118,0.304,0.37,0.582,0.758,0.834c0.387,0.253,0.927,0.473,1.618,0.657c0.69,0.186,1.608,0.312,2.754,0.379v1.264h-14.454
			v-1.264c1.145-0.168,2.072-0.421,2.779-0.758s1.314-0.8,1.819-1.39c0.505-0.589,0.968-1.356,1.39-2.3
			c0.421-0.942,0.935-2.105,1.542-3.487l16.172-37.752h1.162l15.97,38.156c0.64,1.584,1.238,2.855,1.794,3.815
			c0.556,0.961,1.128,1.711,1.718,2.249c0.589,0.54,1.229,0.91,1.92,1.112c0.69,0.202,1.524,0.32,2.501,0.354v1.264h-18.143v-1.264
			c1.819-0.067,3.058-0.361,3.714-0.884c0.657-0.522,0.986-1.154,0.986-1.896c-0.034-0.977-0.489-2.561-1.365-4.751L225.883,302.715
			z M224.923,300.188l-7.783-18.548l-7.985,18.548H224.923z"/>
		<path d="M304.704,305.394l1.112,0.202l-3.942,12.483h-35.579v-1.264h1.769c1.887,0,3.268-0.623,4.145-1.87
			c0.471-0.74,0.708-2.408,0.708-5.003v-29.666c0-2.83-0.321-4.616-0.96-5.357c-0.876-1.011-2.173-1.517-3.892-1.517h-1.769v-1.263
			h20.822v1.263c-1.247,0-2.283,0.06-3.108,0.178c-0.826,0.118-1.508,0.286-2.047,0.505c-0.54,0.22-0.96,0.48-1.264,0.783
			c-0.303,0.304-0.556,0.641-0.758,1.011c-0.337,0.675-0.505,2.409-0.505,5.206v28.857c0,1.584,0.117,2.729,0.354,3.437
			c0.235,0.708,0.708,1.196,1.415,1.466c0.606,0.202,2.375,0.303,5.307,0.303h3.335c3.538,0,6.014-0.252,7.429-0.758
			c0.708-0.235,1.381-0.572,2.021-1.011c0.64-0.438,1.264-1.011,1.87-1.718c0.606-0.708,1.196-1.567,1.769-2.578
			C303.507,308.072,304.097,306.843,304.704,305.394z"/>
		<path d="M361.742,272.14v10.815h-0.758c-0.371-2.897-1.222-4.944-2.552-6.141c-1.331-1.196-3.293-1.795-5.888-1.795h-6.469v35.125
			c0,1.55,0.109,2.771,0.328,3.664c0.219,0.894,0.531,1.559,0.935,1.996c0.404,0.438,0.91,0.717,1.516,0.834
			c0.606,0.118,1.314,0.177,2.123,0.177h1.566v1.264h-19.458v-1.264h1.617c0.809,0,1.517-0.067,2.123-0.202
			c0.606-0.134,1.112-0.43,1.516-0.884c0.404-0.455,0.715-1.12,0.935-1.997c0.219-0.875,0.329-2.071,0.329-3.588V275.02h-5.509
			c-1.382,0-2.603,0.11-3.664,0.329c-1.061,0.22-1.979,0.624-2.754,1.213c-0.775,0.59-1.39,1.398-1.844,2.426
			c-0.455,1.028-0.733,2.35-0.834,3.968h-1.264V272.14H361.742z"/>
		<path d="M410.846,302.715h-17.79l-3.133,7.228c-0.741,1.786-1.112,3.117-1.112,3.992c0,0.371,0.059,0.708,0.177,1.011
			c0.118,0.304,0.371,0.582,0.759,0.834c0.387,0.253,0.926,0.473,1.617,0.657c0.69,0.186,1.608,0.312,2.754,0.379v1.264h-14.454
			v-1.264c1.145-0.168,2.072-0.421,2.78-0.758c0.707-0.337,1.313-0.8,1.819-1.39c0.505-0.589,0.968-1.356,1.39-2.3
			c0.421-0.942,0.935-2.105,1.541-3.487l16.173-37.752h1.162l15.971,38.156c0.64,1.584,1.238,2.855,1.794,3.815
			c0.556,0.961,1.128,1.711,1.718,2.249c0.59,0.54,1.229,0.91,1.921,1.112c0.69,0.202,1.524,0.32,2.502,0.354v1.264H410.29v-1.264
			c1.819-0.067,3.058-0.361,3.715-0.884c0.656-0.522,0.985-1.154,0.985-1.896c-0.034-0.977-0.489-2.561-1.365-4.751L410.846,302.715
			z M409.886,300.188l-7.783-18.548l-7.985,18.548H409.886z"/>
		<path d="M448.981,272.14h12.433l28.1,34.467v-26.482c0-1.549-0.109-2.779-0.328-3.688c-0.22-0.91-0.539-1.584-0.96-2.022
			c-0.422-0.438-0.936-0.715-1.542-0.833s-1.297-0.178-2.072-0.178h-1.617v-1.263h16.021v1.263h-1.668
			c-0.809,0-1.517,0.068-2.123,0.202c-0.606,0.136-1.111,0.438-1.516,0.91c-0.404,0.473-0.708,1.146-0.91,2.021
			c-0.202,0.877-0.303,2.072-0.303,3.588v38.713h-1.213l-30.273-36.994v28.302c0,1.584,0.109,2.822,0.329,3.715
			c0.219,0.893,0.53,1.559,0.935,1.996c0.404,0.438,0.91,0.707,1.517,0.809c0.606,0.101,1.296,0.151,2.072,0.151h1.617v1.264
			h-15.971v-1.264h1.617c0.809,0,1.517-0.067,2.123-0.202c0.606-0.134,1.119-0.43,1.541-0.884c0.421-0.455,0.733-1.12,0.936-1.997
			c0.202-0.875,0.303-2.071,0.303-3.588v-31.94c-0.675-0.809-1.238-1.448-1.693-1.921c-0.454-0.471-0.884-0.858-1.288-1.162
			s-0.843-0.556-1.314-0.758s-1.062-0.421-1.769-0.657c-0.675-0.202-1.668-0.304-2.982-0.304V272.14z"/>
		<path d="M552.415,302.715h-17.79l-3.133,7.228c-0.741,1.786-1.112,3.117-1.112,3.992c0,0.371,0.059,0.708,0.177,1.011
			c0.118,0.304,0.371,0.582,0.759,0.834c0.387,0.253,0.926,0.473,1.617,0.657c0.69,0.186,1.608,0.312,2.754,0.379v1.264h-14.454
			v-1.264c1.146-0.168,2.072-0.421,2.78-0.758c0.707-0.337,1.313-0.8,1.819-1.39c0.505-0.589,0.968-1.356,1.39-2.3
			c0.421-0.942,0.935-2.105,1.541-3.487l16.173-37.752h1.162l15.971,38.156c0.64,1.584,1.238,2.855,1.794,3.815
			c0.556,0.961,1.128,1.711,1.718,2.249c0.59,0.54,1.229,0.91,1.921,1.112c0.69,0.202,1.524,0.32,2.502,0.354v1.264h-18.144v-1.264
			c1.819-0.067,3.058-0.361,3.715-0.884c0.656-0.522,0.985-1.154,0.985-1.896c-0.034-0.977-0.489-2.561-1.365-4.751L552.415,302.715
			z M551.455,300.188l-7.783-18.548l-7.985,18.548H551.455z"/>
		<path d="M623.907,272.14v10.815h-0.758c-0.371-2.897-1.222-4.944-2.553-6.141s-3.294-1.795-5.888-1.795h-6.469v35.125
			c0,1.55,0.108,2.771,0.328,3.664c0.219,0.894,0.531,1.559,0.936,1.996c0.404,0.438,0.909,0.717,1.516,0.834
			c0.606,0.118,1.314,0.177,2.123,0.177h1.566v1.264h-19.457v-1.264h1.617c0.809,0,1.516-0.067,2.122-0.202
			c0.606-0.134,1.112-0.43,1.517-0.884c0.404-0.455,0.715-1.12,0.935-1.997c0.219-0.875,0.329-2.071,0.329-3.588V275.02h-5.509
			c-1.382,0-2.604,0.11-3.664,0.329c-1.062,0.22-1.98,0.624-2.755,1.213c-0.775,0.59-1.39,1.398-1.845,2.426
			c-0.454,1.028-0.732,2.35-0.834,3.968h-1.263V272.14H623.907z"/>
	</g>
	<g>
		<path d="M223.655,358.353h-6.565l-8.356-11.53c-0.308,0.019-0.583,0.032-0.828,0.041s-0.466,0.014-0.665,0.014
			c-0.163,0-0.335-0.005-0.516-0.014s-0.371-0.022-0.57-0.041v7.162c0,0.868,0.059,1.552,0.177,2.049
			c0.117,0.497,0.289,0.868,0.515,1.112s0.498,0.394,0.814,0.447c0.316,0.055,0.674,0.081,1.072,0.081h0.977v0.679h-10.581v-0.679
			h0.95c1.013,0,1.754-0.334,2.225-1.003c0.253-0.398,0.38-1.293,0.38-2.687V338.06c0-1.52-0.172-2.478-0.516-2.876
			c-0.471-0.543-1.167-0.813-2.089-0.813h-0.95v-0.679h8.98c1.32,0,2.459,0.05,3.418,0.149c0.958,0.1,1.745,0.249,2.36,0.447
			c0.614,0.199,1.193,0.476,1.736,0.828c0.543,0.353,1.018,0.777,1.424,1.274c0.407,0.498,0.728,1.054,0.963,1.669
			c0.235,0.615,0.353,1.275,0.353,1.98c0,1.537-0.488,2.857-1.465,3.961s-2.505,1.89-4.585,2.36l5.073,7.054
			c0.597,0.813,1.126,1.483,1.587,2.008c0.461,0.524,0.922,0.94,1.384,1.248s0.95,0.533,1.465,0.678
			c0.516,0.146,1.126,0.254,1.832,0.325V358.353z M206.156,345.683c0.235,0,0.438,0.005,0.611,0.014
			c0.171,0.01,0.312,0.014,0.42,0.014c1.175,0,2.207-0.136,3.093-0.407c0.886-0.271,1.628-0.65,2.225-1.139s1.044-1.063,1.343-1.723
			s0.448-1.38,0.448-2.157c0-0.76-0.127-1.46-0.38-2.103c-0.253-0.642-0.615-1.193-1.085-1.655
			c-0.471-0.461-1.031-0.818-1.682-1.071c-0.651-0.253-1.366-0.38-2.144-0.38c-0.742,0-1.691,0.118-2.849,0.353V345.683z"/>
		<path d="M244.45,335.048v9.74h5.399c0.796,0,1.438-0.072,1.926-0.218c0.488-0.145,0.873-0.361,1.153-0.65s0.475-0.66,0.583-1.112
			s0.181-0.986,0.217-1.602h0.678v8.573h-0.678c-0.09-0.705-0.194-1.293-0.312-1.764c-0.118-0.47-0.308-0.845-0.569-1.125
			c-0.263-0.28-0.629-0.479-1.099-0.598c-0.47-0.117-1.103-0.176-1.899-0.176h-5.399v8.139c0,0.615,0.009,1.104,0.027,1.465
			c0.018,0.362,0.09,0.638,0.217,0.828c0.126,0.189,0.326,0.312,0.597,0.366c0.271,0.054,0.669,0.081,1.193,0.081h4.178
			c0.705,0,1.302-0.018,1.791-0.055c0.488-0.036,0.909-0.108,1.262-0.217c0.353-0.108,0.665-0.258,0.936-0.447
			c0.271-0.19,0.561-0.43,0.868-0.719c0.724-0.706,1.492-1.836,2.306-3.392h0.732l-2.143,6.186h-18.991v-0.679h0.868
			c0.235,0,0.479-0.026,0.732-0.081c0.253-0.054,0.493-0.131,0.719-0.23s0.43-0.23,0.61-0.394s0.308-0.353,0.38-0.569
			c0.145-0.397,0.217-1.194,0.217-2.388v-16.007c0-1.573-0.154-2.541-0.461-2.902c-0.434-0.488-1.167-0.732-2.197-0.732h-0.868
			v-0.679h18.991v5.399h-0.434c-0.181-0.887-0.375-1.597-0.583-2.13s-0.484-0.945-0.827-1.234c-0.344-0.289-0.783-0.475-1.316-0.557
			c-0.534-0.081-1.217-0.122-2.048-0.122H244.45z"/>
		<path d="M289.798,333.149v8.519h-0.678c-0.308-2.297-1.058-4.052-2.251-5.264c-1.194-1.211-2.713-1.817-4.558-1.817
			c-0.633,0-1.212,0.108-1.736,0.325c-0.524,0.218-0.986,0.502-1.383,0.854c-0.398,0.354-0.706,0.756-0.922,1.208
			c-0.217,0.452-0.326,0.922-0.326,1.41c0,0.452,0.09,0.882,0.271,1.289s0.742,1.044,1.682,1.912
			c1.574,0.995,2.975,1.818,4.205,2.469c1.157,0.634,2.722,1.592,4.694,2.876c0.85,0.651,1.501,1.425,1.953,2.32
			c0.452,0.895,0.678,1.831,0.678,2.808c0,0.922-0.19,1.8-0.57,2.632s-0.909,1.56-1.587,2.184s-1.497,1.122-2.455,1.492
			c-0.959,0.37-2.008,0.556-3.147,0.556c-0.724,0-1.393-0.054-2.007-0.162c-0.108-0.019-0.394-0.096-0.854-0.23
			c-0.461-0.136-0.955-0.276-1.479-0.421c-0.525-0.145-1.013-0.28-1.465-0.407c-0.452-0.126-0.715-0.189-0.787-0.189
			c-0.308,0-0.547,0.091-0.719,0.271c-0.172,0.181-0.303,0.561-0.394,1.139h-0.678v-8.464h0.678c0.326,1.736,0.75,3.065,1.275,3.988
			c0.253,0.434,0.592,0.836,1.018,1.207c0.425,0.371,0.904,0.696,1.438,0.977c0.533,0.28,1.107,0.498,1.723,0.651
			c0.615,0.153,1.239,0.23,1.872,0.23c0.759,0,1.442-0.108,2.048-0.326c0.606-0.217,1.122-0.511,1.546-0.881
			c0.425-0.371,0.75-0.801,0.977-1.289c0.226-0.488,0.339-1.004,0.339-1.547c0-0.614-0.167-1.229-0.502-1.845
			c-0.335-0.614-0.9-1.221-1.695-1.817c-0.778-0.47-1.7-1.021-2.768-1.655c-2.044-1.175-3.861-2.306-5.453-3.391
			c-0.886-0.706-1.56-1.479-2.021-2.319c-0.461-0.842-0.692-1.777-0.692-2.809c0-0.868,0.181-1.695,0.543-2.482
			c0.361-0.786,0.863-1.479,1.505-2.075s1.406-1.067,2.292-1.411c0.886-0.343,1.845-0.515,2.876-0.515
			c1.302,0,2.686,0.316,4.151,0.949c0.343,0.145,0.633,0.263,0.868,0.353c0.235,0.091,0.425,0.127,0.569,0.108
			c0.326,0,0.588-0.09,0.787-0.271c0.199-0.181,0.353-0.561,0.461-1.139H289.798z"/>
		<path d="M328.31,333.691v5.806h-0.407c-0.199-1.555-0.656-2.653-1.37-3.296c-0.715-0.642-1.768-0.963-3.161-0.963h-3.473v18.854
			c0,0.832,0.059,1.488,0.176,1.968c0.118,0.479,0.285,0.836,0.502,1.071c0.217,0.235,0.488,0.385,0.814,0.447
			c0.326,0.063,0.705,0.095,1.139,0.095h0.841v0.679h-10.445v-0.679h0.868c0.434,0,0.813-0.035,1.139-0.108
			c0.326-0.071,0.597-0.23,0.814-0.475c0.217-0.244,0.384-0.601,0.502-1.071c0.117-0.471,0.176-1.112,0.176-1.927v-18.854h-2.957
			c-0.742,0-1.397,0.059-1.967,0.176c-0.57,0.118-1.063,0.335-1.479,0.651s-0.746,0.751-0.99,1.302
			c-0.244,0.553-0.393,1.262-0.447,2.13h-0.678v-5.806H328.31z"/>
		<path d="M356.891,350.105h-9.55l-1.682,3.879c-0.398,0.959-0.597,1.674-0.597,2.144c0,0.199,0.031,0.38,0.095,0.543
			c0.063,0.162,0.199,0.312,0.407,0.447c0.208,0.136,0.497,0.254,0.868,0.353c0.371,0.1,0.863,0.168,1.479,0.203v0.679h-7.759
			v-0.679c0.615-0.09,1.112-0.226,1.492-0.406s0.706-0.43,0.977-0.746c0.271-0.316,0.52-0.729,0.746-1.234
			c0.226-0.507,0.502-1.13,0.828-1.872l8.682-20.266h0.624l8.573,20.482c0.343,0.851,0.665,1.533,0.963,2.049
			c0.298,0.515,0.605,0.918,0.922,1.207c0.316,0.289,0.66,0.488,1.031,0.597c0.371,0.108,0.818,0.172,1.343,0.189v0.679h-9.739
			v-0.679c0.977-0.035,1.641-0.193,1.994-0.475c0.353-0.28,0.529-0.619,0.529-1.017c-0.018-0.524-0.263-1.375-0.732-2.551
			L356.891,350.105z M356.375,348.749l-4.178-9.957l-4.287,9.957H356.375z"/>
		<path d="M397.844,334.37v-0.679h8.709v0.679h-0.922c-0.941,0-1.683,0.406-2.225,1.221c-0.254,0.362-0.38,1.239-0.38,2.632v9.983
			c0,2.424-0.254,4.35-0.76,5.778c-0.254,0.688-0.615,1.33-1.085,1.927c-0.471,0.597-1.067,1.117-1.791,1.56
			c-0.724,0.443-1.569,0.796-2.537,1.059c-0.968,0.262-2.075,0.393-3.323,0.393c-1.356,0-2.541-0.117-3.554-0.353
			c-1.013-0.234-1.881-0.578-2.604-1.03s-1.32-0.995-1.79-1.628c-0.471-0.633-0.851-1.348-1.14-2.144
			c-0.398-1.103-0.597-3.129-0.597-6.077v-9.631c0-0.76-0.051-1.379-0.149-1.858c-0.1-0.479-0.258-0.854-0.475-1.126
			c-0.218-0.271-0.493-0.457-0.828-0.557c-0.335-0.099-0.728-0.148-1.18-0.148h-0.95v-0.679h10.662v0.679h-0.949
			c-0.434,0-0.813,0.045-1.14,0.136c-0.325,0.09-0.597,0.267-0.813,0.528c-0.217,0.263-0.385,0.634-0.502,1.112
			c-0.118,0.479-0.177,1.117-0.177,1.913v10.743c0,1.085,0.072,2.144,0.218,3.174c0.145,1.031,0.442,1.949,0.895,2.754
			c0.452,0.806,1.099,1.447,1.94,1.927c0.841,0.479,1.957,0.719,3.351,0.719c0.795,0,1.563-0.095,2.306-0.285
			c0.741-0.189,1.415-0.447,2.021-0.773c0.605-0.325,1.135-0.719,1.587-1.18s0.786-0.963,1.004-1.506
			c0.47-1.066,0.705-2.93,0.705-5.589v-9.983c0-1.52-0.172-2.478-0.516-2.876c-0.471-0.543-1.166-0.813-2.089-0.813H397.844z"/>
		<path d="M445.444,358.353h-6.565l-8.356-11.53c-0.308,0.019-0.583,0.032-0.827,0.041s-0.466,0.014-0.665,0.014
			c-0.162,0-0.334-0.005-0.515-0.014c-0.182-0.009-0.371-0.022-0.57-0.041v7.162c0,0.868,0.059,1.552,0.177,2.049
			c0.117,0.497,0.289,0.868,0.516,1.112c0.226,0.244,0.497,0.394,0.813,0.447c0.316,0.055,0.674,0.081,1.071,0.081h0.978v0.679
			h-10.581v-0.679h0.949c1.013,0,1.755-0.334,2.225-1.003c0.253-0.398,0.38-1.293,0.38-2.687V338.06c0-1.52-0.172-2.478-0.516-2.876
			c-0.47-0.543-1.166-0.813-2.089-0.813h-0.949v-0.679h8.979c1.32,0,2.46,0.05,3.419,0.149c0.958,0.1,1.745,0.249,2.36,0.447
			c0.614,0.199,1.193,0.476,1.736,0.828c0.542,0.353,1.018,0.777,1.424,1.274c0.407,0.498,0.729,1.054,0.963,1.669
			c0.235,0.615,0.354,1.275,0.354,1.98c0,1.537-0.488,2.857-1.466,3.961c-0.977,1.104-2.505,1.89-4.585,2.36l5.074,7.054
			c0.597,0.813,1.125,1.483,1.587,2.008c0.461,0.524,0.922,0.94,1.384,1.248c0.461,0.308,0.949,0.533,1.465,0.678
			c0.516,0.146,1.126,0.254,1.831,0.325V358.353z M427.945,345.683c0.235,0,0.438,0.005,0.61,0.014
			c0.172,0.01,0.313,0.014,0.421,0.014c1.176,0,2.206-0.136,3.093-0.407c0.886-0.271,1.628-0.65,2.225-1.139
			s1.045-1.063,1.343-1.723c0.299-0.66,0.447-1.38,0.447-2.157c0-0.76-0.126-1.46-0.379-2.103c-0.254-0.642-0.615-1.193-1.086-1.655
			c-0.471-0.461-1.03-0.818-1.682-1.071s-1.366-0.38-2.144-0.38c-0.741,0-1.691,0.118-2.849,0.353V345.683z"/>
		<path d="M475.49,350.105h-9.549l-1.683,3.879c-0.397,0.959-0.597,1.674-0.597,2.144c0,0.199,0.031,0.38,0.095,0.543
			c0.063,0.162,0.199,0.312,0.407,0.447s0.497,0.254,0.868,0.353c0.37,0.1,0.863,0.168,1.479,0.203v0.679h-7.759v-0.679
			c0.614-0.09,1.112-0.226,1.492-0.406c0.379-0.181,0.705-0.43,0.977-0.746c0.271-0.316,0.52-0.729,0.746-1.234
			c0.226-0.507,0.502-1.13,0.827-1.872l8.682-20.266h0.624l8.573,20.482c0.343,0.851,0.664,1.533,0.963,2.049
			c0.298,0.515,0.605,0.918,0.922,1.207s0.66,0.488,1.031,0.597c0.37,0.108,0.818,0.172,1.343,0.189v0.679h-9.739v-0.679
			c0.977-0.035,1.642-0.193,1.994-0.475c0.353-0.28,0.528-0.619,0.528-1.017c-0.018-0.524-0.262-1.375-0.732-2.551L475.49,350.105z
			 M474.976,348.749l-4.179-9.957l-4.286,9.957H474.976z"/>
		<path d="M498.186,333.691h6.674l15.084,18.503v-14.216c0-0.832-0.059-1.492-0.176-1.98c-0.118-0.489-0.29-0.851-0.516-1.086
			c-0.227-0.234-0.502-0.384-0.828-0.447c-0.325-0.063-0.696-0.095-1.112-0.095h-0.868v-0.679h8.601v0.679h-0.896
			c-0.434,0-0.813,0.036-1.14,0.108c-0.325,0.072-0.597,0.235-0.813,0.488s-0.38,0.615-0.488,1.085
			c-0.108,0.471-0.163,1.112-0.163,1.927v20.781h-0.65L504.643,338.9v15.192c0,0.851,0.059,1.516,0.176,1.994
			c0.118,0.479,0.285,0.837,0.502,1.072c0.218,0.235,0.488,0.38,0.814,0.434c0.325,0.055,0.696,0.081,1.112,0.081h0.868v0.679
			h-8.573v-0.679h0.868c0.434,0,0.813-0.035,1.14-0.108c0.325-0.071,0.601-0.23,0.827-0.475c0.226-0.244,0.394-0.601,0.502-1.071
			s0.163-1.112,0.163-1.927v-17.146c-0.362-0.435-0.665-0.777-0.909-1.031c-0.244-0.253-0.475-0.461-0.691-0.624
			c-0.218-0.162-0.453-0.298-0.706-0.406c-0.253-0.109-0.569-0.227-0.949-0.354c-0.362-0.108-0.896-0.162-1.601-0.162V333.691z"/>
		<path d="M560.435,333.691v5.806h-0.407c-0.199-1.555-0.655-2.653-1.37-3.296c-0.714-0.642-1.768-0.963-3.16-0.963h-3.473v18.854
			c0,0.832,0.059,1.488,0.177,1.968c0.117,0.479,0.284,0.836,0.501,1.071c0.218,0.235,0.489,0.385,0.814,0.447
			c0.325,0.063,0.705,0.095,1.14,0.095h0.841v0.679h-10.445v-0.679h0.868c0.435,0,0.814-0.035,1.14-0.108
			c0.325-0.071,0.597-0.23,0.813-0.475c0.218-0.244,0.385-0.601,0.502-1.071c0.118-0.471,0.177-1.112,0.177-1.927v-18.854h-2.957
			c-0.742,0-1.397,0.059-1.967,0.176c-0.57,0.118-1.063,0.335-1.479,0.651c-0.417,0.316-0.746,0.751-0.99,1.302
			c-0.244,0.553-0.394,1.262-0.448,2.13h-0.678v-5.806H560.435z"/>
	</g>
	<rect x="566.604" y="343.547" width="54.761" height="4.51"/>
	<rect x="139.415" y="343.547" width="54.76" height="4.51"/>
</g>
</svg>
